# xmcd CD database file
# Copyright (C) 1996 Ti Kan
#
# Track frame offsets:
# 	187
# 	15385
# 	31602
# 	51010
# 	65050
# 	84775
# 	98120
# 	115427
# 	131820
# 	145160
# 	159282
# 	179252
# 	194710
# 	209772
#
# Disc length: 3069 seconds
#
# Revision: 1
# Processed by: cddbd v1.4b41PL1 Copyright (c) Steve Scherf et al.
# Submitted via: DiscPlay 3.4.1
#
DISCID=c00bfb0e
DTITLE=Various Artist - FEELIN LIKE A WOMAN
DYEAR=1900
DGENRE=
TTITLE0=Can You Read My Mind
TTITLE1=In My Dreams
TTITLE2=Don't Make Me Over
TTITLE3=(If Loving You Is Wrong) I Don't Want To Be Right
TTITLE4=Neither One Of Us (Wants To Be The First To Say Goodbye)
TTITLE5=We'll Sing In The Sunshine
TTITLE6=Slow Hand
TTITLE7=You Light Up My Life
TTITLE8=I Will Always Love You
TTITLE9=Anyone Who Had A Heart
TTITLE10=How Am I Supposed To Live Without You
TTITLE11=Where Is A Women To Go
TTITLE12=I'd Rather Leave While I'm In Love
TTITLE13=The Way We Were (Try To Remember)
EXTD=
EXTT0=Maureen McGovern
EXTT1=The Judds
EXTT2=Jennifer Warnes
EXTT3=Barbara Mandrell
EXTT4=Gladys Knight and The Pips
EXTT5=Gale Garnett
EXTT6=Pointer Sisters
EXTT7=Debby Boone
EXTT8=Linda Ronstadt
EXTT9=Dionne Warwick
EXTT10=Laura Branigan
EXTT11=K. T. Oslin
EXTT12=Rita Coolidge
EXTT13=Glady's Night and The Pips
PLAYORDER=
